<svg width="589" height="648" viewBox="0 0 589 648" fill="none" xmlns="http://www.w3.org/2000/svg">
<path fill-rule="evenodd" clip-rule="evenodd" d="M560.6 246.6V95.5L561 94.9L560.6 94.7V94.3H559.9L428.8 18.6L428.4 18L428 18.2L427.6 18L427.2 18.6L296.1 94.3H295.4V94.7L295 94.9L295.4 95.5V246.9L295 247.5L295.4 247.7V248.1H296.1L428.3 324.4L428.7 323.8L450 311.5H450.3C450.3 311.6 450.6 311.2 450.6 311.2L472.1 298.8H472.2L472.3 298.6L493.7 286.2L494 286.4L494.3 285.9L515.7 273.5H515.9C515.9 273.6 516.1 273.3 516.1 273.3L537.9 260.7H538.1C538.1 260.8 538.3 260.4 538.3 260.4L559.6 248.1L560 248.3L560.2 247.9H560.6V247.2L561 246.6L560.6 246.4V246.6ZM428.8 195.7L407.2 183.1V159L428.1 146.8L449 159V182.1L427.8 169.8L426.8 171.5L449 184.3V184.5H449.4L470.8 196.9V197.3H471.5L492.7 209.6V210.1H493.6L514.6 222.2V222.5H515.2L536.8 235V235.3H537.3L557.7 247.1L538 258.5L428.9 195.6L428.8 195.7ZM428 322L297.5 246.6V95.9L428 20.5L558.5 95.9V245.5L538.6 234V108L539 107.4L538.6 107.2V106.8H537.9L428.7 43.9L428.3 43.3L427.9 43.5L427.5 43.3L427.1 43.9L317.9 106.8H317.2V107.2L316.8 107.4L317.2 108V234.2L316.8 234.8L317.2 235V235.4H317.9L427.3 298.4L447.8 310.4L427.8 321.9L428 322ZM450 309.3L429.4 297.3L428.5 296.8L427.6 296.3L319.3 233.9V108.4L428 45.8L536.7 108.4V232.9L516.5 221.2V120.8L516.9 120.2L516.5 120V119.6H515.8L428.8 69.1L428.4 68.5L428 68.7L427.6 68.5L427.2 69.1L339.9 119.6H339.2V120L338.8 120.2L339.2 120.8V221.4L338.8 222L339.2 222.2V222.6H339.9L428.3 273.7L469.9 297.7L449.9 309.2L450 309.3ZM472 296.6L427.7 271L341.3 221.1V121.1L428.1 70.9L514.6 121.1V220L494.7 208.5V133.5L495.1 132.9L494.7 132.7V132.3H494L428.8 94.6L428.4 94L428 94.2L427.6 94L427.2 94.6L361.7 132.3H361V132.7L360.6 132.9L361 133.5V208.9L360.6 209.5L361 209.7V210.1H361.7L428.2 248.4L491.6 285.1L471.9 296.5L472 296.6ZM493.7 284L429.4 246.8L429 246.6L427.7 245.8L363.1 208.6V133.8L428 96.4L492.6 133.8V207.4L472.7 195.9V146L473.1 145.4L472.7 145.2V144.8H472L428.7 119.8L428.3 119.2L427.9 119.4L427.5 119.2L427.1 119.8L383.5 144.8H382.8V145.2L382.4 145.4L382.8 146V196.2L382.4 196.8L382.8 197V197.4H383.5L427.7 222.7L513.5 272.5L493.5 284H493.7ZM515.7 271.3L429.4 221.2L428.9 220.9L427.7 220.2L385 195.8V146.2L428.1 121.6L470.9 146.2V194.7L451 183.2V158.7L451.4 158.1L451 157.9V157.5H450.3L428.9 145L428.5 144.4L428.1 144.6L427.7 144.4L427.3 145L405.9 157.5H405.2V157.9L404.8 158.1L405.2 158.7V183.4L404.8 184L405.2 184.2V184.6H405.9L426.7 196.7L427.6 197.2L428.4 197.7L535.9 259.6L515.8 271.2L515.7 271.3Z" fill="url(#paint0_linear_59_39)"/>
<path fill-rule="evenodd" clip-rule="evenodd" d="M560.6 552.6V401.5L561 400.9L560.6 400.7V400.3H559.9L428.8 324.6L428.4 324L428 324.2L427.6 324L427.2 324.6L401 339.7L296.1 400.3H295.4V400.7L295 400.9L295.4 401.5V552.9L295 553.5L295.4 553.7V554.1H296.1L428.3 630.4L428.7 629.8L450 617.5H450.3C450.3 617.6 450.6 617.2 450.6 617.2L472.1 604.8H472.2L472.3 604.6L493.7 592.2L494 592.4L494.3 591.9L515.7 579.5H515.9C515.9 579.6 516.1 579.3 516.1 579.3L537.9 566.7H538.1C538.1 566.8 538.3 566.4 538.3 566.4L559.6 554.1L560 554.3L560.2 553.9H560.6V553.2L561 552.6L560.6 552.4V552.6ZM426.7 477.6L448.9 490.4V490.6H449.3L470.7 503V503.4H471.4L492.6 515.7V516.2H493.5L514.5 528.3V528.6H515.1L536.7 541.1V541.4H537.2L557.6 553.2L537.9 564.6L428.7 501.7L407.2 489.2V465.1L428.1 452.9L449 465.1V488.2L427.8 475.9L426.8 477.6H426.7ZM428 628L297.5 552.6V401.9L342.1 376.2L428.1 326.5L558.6 401.9V551.5L538.7 540V414L539.1 413.4L538.7 413.2V412.8H538L428.8 349.9L428.4 349.3L428 349.5L427.6 349.3L427.2 349.9L318 412.8H317.3V413.2L316.9 413.4L317.3 414V540.2L316.9 540.8L317.3 541V541.4H318L427.6 604.5L448 616.4L428 627.9V628ZM450 615.3L429.4 603.3L428.5 602.8L427.6 602.3L319.3 539.9V414.4L428 351.8L536.7 414.4V538.9L516.5 527.2V426.8L516.9 426.2L516.5 426V425.6H515.8L428.8 375.1L428.4 374.5L428 374.7L427.6 374.5L427.2 375.1L339.9 425.6H339.2V426L338.8 426.2L339.2 426.8V527.4L338.8 528L339.2 528.2V528.6H339.9L426.6 578.7L427 579L428.3 579.7L469.9 603.7L449.9 615.2L450 615.3ZM472 602.6L427.8 577.1L341.2 527.1V427.1L428 376.9L514.5 427.1V526L494.6 514.5V439.5L495 438.9L494.6 438.7V438.3H493.9L428.7 400.6L428.3 400L427.9 400.2L427.5 400L427.1 400.6L361.6 438.3H360.9V438.7L360.5 438.9L360.9 439.5V514.9L360.5 515.5L360.9 515.7V516.1H361.6L428.1 554.4L491.5 591.1L471.8 602.5L472 602.6ZM493.7 590L429.4 552.8L429 552.6L427.7 551.8L363.1 514.6V439.8L428 402.4L492.6 439.8V513.4L472.7 501.9V452L473.1 451.4L472.7 451.2V450.8H472L428.7 425.8L428.3 425.2L427.9 425.4L427.5 425.2L427.1 425.8L383.5 450.8H382.8V451.2L382.4 451.4L382.8 452V502.2L382.4 502.8L382.8 503V503.4H383.5L427.7 528.7L513.5 578.5L493.5 590H493.7ZM515.7 577.3L429.4 527.2L428.9 526.9L427.7 526.2L385 501.8V452.2L428.1 427.6L470.9 452.2V500.7L451 489.2V464.7L451.4 464.1L451 463.9V463.5H450.3L428.9 451L428.5 450.4L428.1 450.6L427.7 450.4L427.3 451L405.9 463.5H405.2V463.9L404.8 464.1L405.2 464.7V489.4L404.8 490L405.2 490.2V490.6H405.9L426.7 502.7L427.6 503.2L428.4 503.7L535.9 565.6L515.8 577.2L515.7 577.3Z" fill="url(#paint1_linear_59_39)"/>
<path fill-rule="evenodd" clip-rule="evenodd" d="M294.5 399.6V248.5L294.9 247.9L294.5 247.7V247.3H293.8L224.6 207.3L162.8 171.6L162.4 171L162 171.2L161.6 171L161.2 171.6L30.1 247.3H29.4V247.7L29 247.9L29.4 248.5V399.9L29 400.5L29.4 400.7V401.1H30.1L162.3 477.4L162.7 476.8L184 464.5H184.3C184.3 464.6 184.6 464.2 184.6 464.2L206.1 451.8H206.2L206.3 451.6L227.7 439.2L228 439.4L228.3 438.9L249.7 426.5H249.9C249.9 426.6 250.1 426.3 250.1 426.3L271.9 413.7H272.1C272.1 413.8 272.3 413.4 272.3 413.4L293.6 401.1L294 401.3L294.2 400.9H294.6V400.2L295 399.6L294.6 399.4L294.5 399.6ZM184 462.3L163.4 450.3L162.2 449.6L161.6 449.3L53.3 386.9V261.4L162 198.8L270.7 261.4V385.9L250.5 374.2V273.8L250.9 273.2L250.5 273V272.6H249.8L162.8 222.1L162.4 221.5L162 221.7L161.6 221.5L161.2 222.1L73.9 272.6H73.2V273L72.8 273.2L73.2 273.8V374.4L72.8 375L73.2 375.2V375.6H73.9L160.6 425.7L162.3 426.7L203.9 450.7L183.9 462.2L184 462.3ZM205.9 449.6L161.7 424.1L75.1 374.1V274.1L161.9 223.9L248.4 274.1V373L228.5 361.5V286.5L228.9 285.9L228.5 285.7V285.3H227.8L162.6 247.6L162.2 247L161.8 247.2L161.4 247L161 247.6L95.5 285.3H94.8V285.7L94.4 285.9L94.8 286.5V361.9L94.4 362.5L94.8 362.7V363.1H95.5L161 400.8L225.4 438.1L205.7 449.5L205.9 449.6ZM227.7 437.1L163.4 399.9L162.4 399.3L161.6 398.9L97 361.7V286.9L161.9 249.5L226.5 286.9V360.5L206.6 349V299.1L207 298.5L206.6 298.3V297.9H205.9L162.6 273L162.2 272.4L161.8 272.6L161.4 272.4L161 273L117.4 298H116.7V298.4L116.3 298.6L116.7 299.2V349.4L116.3 350L116.7 350.2V350.6H117.4L161.3 375.7L247.4 425.6L227.4 437.1H227.7ZM249.7 424.4L163.4 374.3L162.7 373.9L161.6 373.3L118.9 348.9V299.3L162 274.7L204.8 299.3V347.8L184.9 336.3V311.8L185.3 311.2L184.9 311V310.6H184.2L162.8 298.1L162.4 297.5L162 297.7L161.6 297.5L161.2 298.1L139.8 310.6H139.1V311L138.7 311.2L139.1 311.8V336.5L138.7 337.1L139.1 337.3V337.7H139.8L160.6 349.8L161.7 350.4L162.3 350.8L269.8 412.7L249.7 424.3V424.4ZM271.8 411.6L162.8 348.8L141.1 336.1V312L162 299.8L182.9 312V335.1L161.7 322.8L160.7 324.5L182.9 337.3V337.5H183.3L204.7 349.9V350.3H205.4L226.6 362.6V363.1H227.5L248.5 375.2V375.5H249.1L270.7 388V388.3H271.2L291.6 400.1L271.9 411.5L271.8 411.6ZM292.5 398.5L272.6 387V261L273 260.4L272.6 260.2V259.8H271.9L162.7 196.9L162.3 196.3L161.9 196.5L161.5 196.3L161.1 196.9L51.9 259.8H51.2V260.2L50.8 260.4L51.2 261V387.2L50.8 387.8L51.2 388V388.4H51.9L161.2 451.4L181.9 463.5L161.9 475L31.4 399.6V248.8L161.9 173.4L230.8 213.2L292.5 248.8V398.4V398.5Z" fill="url(#paint2_linear_59_39)"/>
<defs>
<linearGradient id="paint0_linear_59_39" x1="455.613" y1="73.3015" x2="326.434" y2="102.088" gradientUnits="userSpaceOnUse">
<stop stop-color="#7A89E9"/>
<stop offset="1" stop-color="#F8A5F5"/>
</linearGradient>
<linearGradient id="paint1_linear_59_39" x1="455.613" y1="379.301" x2="326.434" y2="408.088" gradientUnits="userSpaceOnUse">
<stop stop-color="#7A89E9"/>
<stop offset="1" stop-color="#F8A5F5"/>
</linearGradient>
<linearGradient id="paint2_linear_59_39" x1="189.613" y1="226.301" x2="60.4343" y2="255.088" gradientUnits="userSpaceOnUse">
<stop stop-color="#7A89E9"/>
<stop offset="1" stop-color="#F8A5F5"/>
</linearGradient>
</defs>
</svg>
