<svg width="589" height="648" viewBox="0 0 589 648" fill="none" xmlns="http://www.w3.org/2000/svg">
<path fill-rule="evenodd" clip-rule="evenodd" d="M294.6 246.6V95.5L295 94.9L294.6 94.7V94.3H293.9L162.8 18.6L162.4 18L162 18.2L161.6 18L161.2 18.6L30.1 94.3H29.4V94.7L29 94.9L29.4 95.5V246.9L29 247.5L29.4 247.7V248.1H30.1L162.3 324.4L162.7 323.8L184 311.5H184.3C184.3 311.6 184.6 311.2 184.6 311.2L206.1 298.8H206.2L206.3 298.6L227.7 286.2L228 286.4L228.3 285.9L249.7 273.5H249.9C249.9 273.6 250.1 273.3 250.1 273.3L271.9 260.7H272.1C272.1 260.8 272.3 260.4 272.3 260.4L293.6 248.1L294 248.3L294.2 247.9H294.6V247.2L295 246.6L294.6 246.4V246.6ZM162.8 195.7L141.2 183.1V159L162.1 146.8L183 159V182.1L161.8 169.8L160.8 171.5L183 184.3V184.5H183.4L204.8 196.9V197.3H205.5L226.7 209.6V210.1H227.6L248.6 222.2V222.5H249.2L270.8 235V235.3H271.3L291.7 247.1L272 258.5L162.9 195.6L162.8 195.7ZM162 322L31.5 246.6V95.9L162 20.5L292.5 95.9V245.5L272.6 234V108L273 107.4L272.6 107.2V106.8H271.9L162.7 43.9L162.3 43.3L161.9 43.5L161.5 43.3L161.1 43.9L51.9 106.8H51.2V107.2L50.8 107.4L51.2 108V234.2L50.8 234.8L51.2 235V235.4H51.9L161.3 298.4L181.8 310.4L161.8 321.9L162 322ZM184 309.3L163.4 297.3L162.5 296.8L161.6 296.3L53.3 233.9V108.4L162 45.8L270.7 108.4V232.9L250.5 221.2V120.8L250.9 120.2L250.5 120V119.6H249.8L162.8 69.1L162.4 68.5L162 68.7L161.6 68.5L161.2 69.1L73.9 119.6H73.2V120L72.8 120.2L73.2 120.8V221.4L72.8 222L73.2 222.2V222.6H73.9L162.3 273.7L203.9 297.7L183.9 309.2L184 309.3ZM206 296.6L161.7 271L75.3 221.1V121.1L162.1 70.9L248.6 121.1V220L228.7 208.5V133.5L229.1 132.9L228.7 132.7V132.3H228L162.8 94.6L162.4 94L162 94.2L161.6 94L161.2 94.6L95.7 132.3H95V132.7L94.6 132.9L95 133.5V208.9L94.6 209.5L95 209.7V210.1H95.7L162.2 248.4L225.6 285.1L205.9 296.5L206 296.6ZM227.7 284L163.4 246.8L163 246.6L161.7 245.8L97.1 208.6V133.8L162 96.4L226.6 133.8V207.4L206.7 195.9V146L207.1 145.4L206.7 145.2V144.8H206L162.7 119.8L162.3 119.2L161.9 119.4L161.5 119.2L161.1 119.8L117.5 144.8H116.8V145.2L116.4 145.4L116.8 146V196.2L116.4 196.8L116.8 197V197.4H117.5L161.7 222.7L247.5 272.5L227.5 284H227.7ZM249.7 271.3L163.4 221.2L162.9 220.9L161.7 220.2L119 195.8V146.2L162.1 121.6L204.9 146.2V194.7L185 183.2V158.7L185.4 158.1L185 157.9V157.5H184.3L162.9 145L162.5 144.4L162.1 144.6L161.7 144.4L161.3 145L139.9 157.5H139.2V157.9L138.8 158.1L139.2 158.7V183.4L138.8 184L139.2 184.2V184.6H139.9L160.7 196.7L161.6 197.2L162.4 197.7L269.9 259.6L249.8 271.2L249.7 271.3Z" fill="url(#paint0_linear_59_38)"/>
<path fill-rule="evenodd" clip-rule="evenodd" d="M294.6 552.6V401.5L295 400.9L294.6 400.7V400.3H293.9L162.8 324.6L162.4 324L162 324.2L161.6 324L161.2 324.6L135 339.7L30.1 400.3H29.4V400.7L29 400.9L29.4 401.5V552.9L29 553.5L29.4 553.7V554.1H30.1L162.3 630.4L162.7 629.8L184 617.5H184.3C184.3 617.6 184.6 617.2 184.6 617.2L206.1 604.8H206.2L206.3 604.6L227.7 592.2L228 592.4L228.3 591.9L249.7 579.5H249.9C249.9 579.6 250.1 579.3 250.1 579.3L271.9 566.7H272.1C272.1 566.8 272.3 566.4 272.3 566.4L293.6 554.1L294 554.3L294.2 553.9H294.6V553.2L295 552.6L294.6 552.4V552.6ZM160.7 477.6L182.9 490.4V490.6H183.3L204.7 503V503.4H205.4L226.6 515.7V516.2H227.5L248.5 528.3V528.6H249.1L270.7 541.1V541.4H271.2L291.6 553.2L271.9 564.6L162.7 501.7L141.2 489.2V465.1L162.1 452.9L183 465.1V488.2L161.8 475.9L160.8 477.6H160.7ZM162 628L31.5 552.6V401.9L76.1 376.2L162.1 326.5L292.6 401.9V551.5L272.7 540V414L273.1 413.4L272.7 413.2V412.8H272L162.8 349.9L162.4 349.3L162 349.5L161.6 349.3L161.2 349.9L52 412.8H51.3V413.2L50.9 413.4L51.3 414V540.2L50.9 540.8L51.3 541V541.4H52L161.6 604.5L182 616.4L162 627.9V628ZM184 615.3L163.4 603.3L162.5 602.8L161.6 602.3L53.3 539.9V414.4L162 351.8L270.7 414.4V538.9L250.5 527.2V426.8L250.9 426.2L250.5 426V425.6H249.8L162.8 375.1L162.4 374.5L162 374.7L161.6 374.5L161.2 375.1L73.9 425.6H73.2V426L72.8 426.2L73.2 426.8V527.4L72.8 528L73.2 528.2V528.6H73.9L160.6 578.7L161 579L162.3 579.7L203.9 603.7L183.9 615.2L184 615.3ZM206 602.6L161.8 577.1L75.2 527.1V427.1L162 376.9L248.5 427.1V526L228.6 514.5V439.5L229 438.9L228.6 438.7V438.3H227.9L162.7 400.6L162.3 400L161.9 400.2L161.5 400L161.1 400.6L95.6 438.3H94.9V438.7L94.5 438.9L94.9 439.5V514.9L94.5 515.5L94.9 515.7V516.1H95.6L162.1 554.4L225.5 591.1L205.8 602.5L206 602.6ZM227.7 590L163.4 552.8L163 552.6L161.7 551.8L97.1 514.6V439.8L162 402.4L226.6 439.8V513.4L206.7 501.9V452L207.1 451.4L206.7 451.2V450.8H206L162.7 425.8L162.3 425.2L161.9 425.4L161.5 425.2L161.1 425.8L117.5 450.8H116.8V451.2L116.4 451.4L116.8 452V502.2L116.4 502.8L116.8 503V503.4H117.5L161.7 528.7L247.5 578.5L227.5 590H227.7ZM249.7 577.3L163.4 527.2L162.9 526.9L161.7 526.2L119 501.8V452.2L162.1 427.6L204.9 452.2V500.7L185 489.2V464.7L185.4 464.1L185 463.9V463.5H184.3L162.9 451L162.5 450.4L162.1 450.6L161.7 450.4L161.3 451L139.9 463.5H139.2V463.9L138.8 464.1L139.2 464.7V489.4L138.8 490L139.2 490.2V490.6H139.9L160.7 502.7L161.6 503.2L162.4 503.7L269.9 565.6L249.8 577.2L249.7 577.3Z" fill="url(#paint1_linear_59_38)"/>
<path fill-rule="evenodd" clip-rule="evenodd" d="M560.5 399.6V248.5L560.9 247.9L560.5 247.7V247.3H559.8L490.6 207.3L428.8 171.6L428.4 171L428 171.2L427.6 171L427.2 171.6L296.1 247.3H295.4V247.7L295 247.9L295.4 248.5V399.9L295 400.5L295.4 400.7V401.1H296.1L428.3 477.4L428.7 476.8L450 464.5H450.3C450.3 464.6 450.6 464.2 450.6 464.2L472.1 451.8H472.2L472.3 451.6L493.7 439.2L494 439.4L494.3 438.9L515.7 426.5H515.9C515.9 426.6 516.1 426.3 516.1 426.3L537.9 413.7H538.1C538.1 413.8 538.3 413.4 538.3 413.4L559.6 401.1L560 401.3L560.2 400.9H560.6V400.2L561 399.6L560.6 399.4L560.5 399.6ZM450 462.3L429.4 450.3L428.2 449.6L427.6 449.3L319.3 386.9V261.4L428 198.8L536.7 261.4V385.9L516.5 374.2V273.8L516.9 273.2L516.5 273V272.6H515.8L428.8 222.1L428.4 221.5L428 221.7L427.6 221.5L427.2 222.1L339.9 272.6H339.2V273L338.8 273.2L339.2 273.8V374.4L338.8 375L339.2 375.2V375.6H339.9L426.6 425.7L428.3 426.7L469.9 450.7L449.9 462.2L450 462.3ZM471.9 449.6L427.7 424.1L341.1 374.1V274.1L427.9 223.9L514.4 274.1V373L494.5 361.5V286.5L494.9 285.9L494.5 285.7V285.3H493.8L428.6 247.6L428.2 247L427.8 247.2L427.4 247L427 247.6L361.5 285.3H360.8V285.7L360.4 285.9L360.8 286.5V361.9L360.4 362.5L360.8 362.7V363.1H361.5L427 400.8L491.4 438.1L471.7 449.5L471.9 449.6ZM493.7 437.1L429.4 399.9L428.4 399.3L427.6 398.9L363 361.7V286.9L427.9 249.5L492.5 286.9V360.5L472.6 349V299.1L473 298.5L472.6 298.3V297.9H471.9L428.6 273L428.2 272.4L427.8 272.6L427.4 272.4L427 273L383.4 298H382.7V298.4L382.3 298.6L382.7 299.2V349.4L382.3 350L382.7 350.2V350.6H383.4L427.3 375.7L513.4 425.6L493.4 437.1H493.7ZM515.7 424.4L429.4 374.3L428.7 373.9L427.6 373.3L384.9 348.9V299.3L428 274.7L470.8 299.3V347.8L450.9 336.3V311.8L451.3 311.2L450.9 311V310.6H450.2L428.8 298.1L428.4 297.5L428 297.7L427.6 297.5L427.2 298.1L405.8 310.6H405.1V311L404.7 311.2L405.1 311.8V336.5L404.7 337.1L405.1 337.3V337.7H405.8L426.6 349.8L427.7 350.4L428.3 350.8L535.8 412.7L515.7 424.3V424.4ZM537.8 411.6L428.8 348.8L407.1 336.1V312L428 299.8L448.9 312V335.1L427.7 322.8L426.7 324.5L448.9 337.3V337.5H449.3L470.7 349.9V350.3H471.4L492.6 362.6V363.1H493.5L514.5 375.2V375.5H515.1L536.7 388V388.3H537.2L557.6 400.1L537.9 411.5L537.8 411.6ZM558.5 398.5L538.6 387V261L539 260.4L538.6 260.2V259.8H537.9L428.7 196.9L428.3 196.3L427.9 196.5L427.5 196.3L427.1 196.9L317.9 259.8H317.2V260.2L316.8 260.4L317.2 261V387.2L316.8 387.8L317.2 388V388.4H317.9L427.2 451.4L447.9 463.5L427.9 475L297.4 399.6V248.8L427.9 173.4L496.8 213.2L558.5 248.8V398.4V398.5Z" fill="url(#paint2_linear_59_38)"/>
<defs>
<linearGradient id="paint0_linear_59_38" x1="67.9452" y1="279.518" x2="282.439" y2="93.268" gradientUnits="userSpaceOnUse">
<stop stop-color="#A2FAFD"/>
<stop offset="1" stop-color="#995FFD"/>
</linearGradient>
<linearGradient id="paint1_linear_59_38" x1="67.9452" y1="585.518" x2="282.439" y2="399.268" gradientUnits="userSpaceOnUse">
<stop stop-color="#A2FAFD"/>
<stop offset="1" stop-color="#995FFD"/>
</linearGradient>
<linearGradient id="paint2_linear_59_38" x1="333.945" y1="432.518" x2="548.439" y2="246.268" gradientUnits="userSpaceOnUse">
<stop stop-color="#A2FAFD"/>
<stop offset="1" stop-color="#995FFD"/>
</linearGradient>
</defs>
</svg>
