<svg width="158" height="46" viewBox="0 0 158 46" fill="none" xmlns="http://www.w3.org/2000/svg">
<mask id="mask0_71_2005" style="mask-type:luminance" maskUnits="userSpaceOnUse" x="0" y="0" width="39" height="44">
<path d="M37.6693 32.8646L19.4999 43.355L1.33042 32.8646V11.8837L19.4999 1.39325L37.6693 11.8837V32.8646Z" fill="white" stroke="white" stroke-width="0.899115"/>
</mask>
<g mask="url(#mask0_71_2005)">
<path d="M19.4999 43.8741L38.1189 33.1241V11.6241L19.4999 0.874146L0.880859 11.6241V33.1241L19.4999 43.8741Z" stroke="white" stroke-width="0.899115" stroke-miterlimit="10" stroke-linecap="square"/>
<mask id="mask1_71_2005" style="mask-type:luminance" maskUnits="userSpaceOnUse" x="19" y="22" width="20" height="22">
<path d="M19.9496 23.153L37.2199 33.1243L19.9496 43.0957V23.153Z" fill="white" stroke="white" stroke-width="0.899115"/>
</mask>
<g mask="url(#mask1_71_2005)">
<path d="M19.5 22.3745L38.119 33.1245" stroke="white" stroke-width="0.899115" stroke-miterlimit="10" stroke-linecap="square"/>
<path d="M35.023 34.8876L19.5 25.9436" stroke="white" stroke-width="0.899115" stroke-miterlimit="10" stroke-linecap="square"/>
<path d="M31.884 36.6933L19.5 29.5123" stroke="white" stroke-width="0.899115" stroke-miterlimit="10" stroke-linecap="square"/>
<path d="M19.5 33.1243L28.788 38.4993" stroke="white" stroke-width="0.899115" stroke-miterlimit="10" stroke-linecap="square"/>
<path d="M25.692 40.2625L19.5 36.6935" stroke="white" stroke-width="0.899115" stroke-miterlimit="10" stroke-linecap="square"/>
<path d="M19.5 40.2624L22.596 42.0684" stroke="white" stroke-width="0.899115" stroke-miterlimit="10" stroke-linecap="square"/>
</g>
<mask id="mask2_71_2005" style="mask-type:luminance" maskUnits="userSpaceOnUse" x="0" y="22" width="20" height="22">
<path d="M19.0503 23.153V43.0957L1.77995 33.1243L19.0503 23.153Z" fill="white" stroke="white" stroke-width="0.899115"/>
</mask>
<g mask="url(#mask2_71_2005)">
<path d="M19.4996 43.8743L0.880615 33.1243" stroke="white" stroke-width="0.899115" stroke-miterlimit="10" stroke-linecap="square"/>
<path d="M3.97681 31.3182L19.4998 40.2622" stroke="white" stroke-width="0.899115" stroke-miterlimit="10" stroke-linecap="square"/>
<path d="M7.073 29.5122L19.5 36.6932" stroke="white" stroke-width="0.899115" stroke-miterlimit="10" stroke-linecap="square"/>
<path d="M19.5002 33.1243L10.1692 27.7493" stroke="white" stroke-width="0.899115" stroke-miterlimit="10" stroke-linecap="square"/>
<path d="M13.2654 25.9436L19.5004 29.5126" stroke="white" stroke-width="0.899115" stroke-miterlimit="10" stroke-linecap="square"/>
<path d="M19.4998 25.9433L16.4038 24.1373" stroke="white" stroke-width="0.899115" stroke-miterlimit="10" stroke-linecap="square"/>
</g>
<mask id="mask3_71_2005" style="mask-type:luminance" maskUnits="userSpaceOnUse" x="0" y="11" width="20" height="23">
<path d="M18.6008 22.3739L1.33042 32.3452V12.4026L18.6008 22.3739Z" fill="white" stroke="white" stroke-width="0.899115"/>
</mask>
<g mask="url(#mask3_71_2005)">
<path d="M0.880615 33.124V11.624" stroke="white" stroke-width="0.899115" stroke-miterlimit="10" stroke-linecap="square"/>
<path d="M3.97681 13.3876V31.3186" stroke="white" stroke-width="0.899115" stroke-miterlimit="10" stroke-linecap="square"/>
<path d="M7.073 15.193V29.512" stroke="white" stroke-width="0.899115" stroke-miterlimit="10" stroke-linecap="square"/>
<path d="M10.1692 27.7493V16.9993" stroke="white" stroke-width="0.899115" stroke-miterlimit="10" stroke-linecap="square"/>
<path d="M13.2654 18.7622V25.9432" stroke="white" stroke-width="0.899115" stroke-miterlimit="10" stroke-linecap="square"/>
<path d="M16.4038 24.1373V20.5683" stroke="white" stroke-width="0.899115" stroke-miterlimit="10" stroke-linecap="square"/>
</g>
<mask id="mask4_71_2005" style="mask-type:luminance" maskUnits="userSpaceOnUse" x="0" y="0" width="20" height="23">
<path d="M19.0503 21.5955L1.77995 11.6241L19.0503 1.65281V21.5955Z" fill="white" stroke="white" stroke-width="0.899115"/>
</mask>
<g mask="url(#mask4_71_2005)">
<path d="M19.4999 0.874329L0.880859 11.6243" stroke="white" stroke-width="0.899115" stroke-miterlimit="10" stroke-linecap="square"/>
<path d="M3.97705 13.3872L19.5 4.44318" stroke="white" stroke-width="0.899115" stroke-miterlimit="10" stroke-linecap="square"/>
<path d="M7.07324 15.1928L19.5002 8.01178" stroke="white" stroke-width="0.899115" stroke-miterlimit="10" stroke-linecap="square"/>
<path d="M19.5004 11.6237L10.1694 16.9987" stroke="white" stroke-width="0.899115" stroke-miterlimit="10" stroke-linecap="square"/>
<path d="M13.2656 18.762L19.5006 15.193" stroke="white" stroke-width="0.899115" stroke-miterlimit="10" stroke-linecap="square"/>
<path d="M19.5001 18.762L16.4041 20.568" stroke="white" stroke-width="0.899115" stroke-miterlimit="10" stroke-linecap="square"/>
</g>
<mask id="mask5_71_2005" style="mask-type:luminance" maskUnits="userSpaceOnUse" x="19" y="0" width="20" height="23">
<path d="M19.9496 21.5955V1.65281L37.2199 11.6241L19.9496 21.5955Z" fill="white" stroke="white" stroke-width="0.899115"/>
</mask>
<g mask="url(#mask5_71_2005)">
<path d="M19.5002 0.874329L38.1192 11.6243" stroke="white" stroke-width="0.899115" stroke-miterlimit="10" stroke-linecap="square"/>
<path d="M35.023 13.3872L19.5 4.44318" stroke="white" stroke-width="0.899115" stroke-miterlimit="10" stroke-linecap="square"/>
<path d="M31.884 15.1929L19.5 8.0119" stroke="white" stroke-width="0.899115" stroke-miterlimit="10" stroke-linecap="square"/>
<path d="M19.5 11.6238L28.788 16.9988" stroke="white" stroke-width="0.899115" stroke-miterlimit="10" stroke-linecap="square"/>
<path d="M25.692 18.7619L19.5 15.1929" stroke="white" stroke-width="0.899115" stroke-miterlimit="10" stroke-linecap="square"/>
<path d="M19.5 18.762L22.596 20.568" stroke="white" stroke-width="0.899115" stroke-miterlimit="10" stroke-linecap="square"/>
</g>
<mask id="mask6_71_2005" style="mask-type:luminance" maskUnits="userSpaceOnUse" x="19" y="11" width="20" height="23">
<path d="M20.3991 22.3739L37.6694 12.4026V32.3452L20.3991 22.3739Z" fill="white" stroke="white" stroke-width="0.899115"/>
</mask>
<g mask="url(#mask6_71_2005)">
<path d="M38.1194 11.6243V33.1243" stroke="white" stroke-width="0.899115" stroke-miterlimit="10" stroke-linecap="square"/>
<path d="M35.0229 31.3186V13.3876" stroke="white" stroke-width="0.899115" stroke-miterlimit="10" stroke-linecap="square"/>
<path d="M31.8848 29.512V15.193" stroke="white" stroke-width="0.899115" stroke-miterlimit="10" stroke-linecap="square"/>
<path d="M28.7886 16.9993V27.7493" stroke="white" stroke-width="0.899115" stroke-miterlimit="10" stroke-linecap="square"/>
<path d="M25.6924 25.9432V18.7622" stroke="white" stroke-width="0.899115" stroke-miterlimit="10" stroke-linecap="square"/>
<path d="M22.5962 20.5685V24.1375" stroke="white" stroke-width="0.899115" stroke-miterlimit="10" stroke-linecap="square"/>
<path d="M38.119 33.1244L19.5 22.3745" stroke="white" stroke-width="0.899115" stroke-miterlimit="10" stroke-linecap="square"/>
</g>
</g>
<path d="M92.2095 22.6525H77.8022C77.5508 22.6525 77.3097 22.7524 77.1319 22.9302C76.9541 23.1079 76.8542 23.3491 76.8542 23.6005C76.8542 23.8519 76.9541 24.093 77.1319 24.2708C77.3097 24.4485 77.5508 24.5484 77.8022 24.5484H92.2095C92.4609 24.5484 92.702 24.4485 92.8798 24.2708C93.0576 24.093 93.1575 23.8519 93.1575 23.6005C93.1575 23.3491 93.0576 23.1079 92.8798 22.9302C92.702 22.7524 92.4609 22.6525 92.2095 22.6525Z" fill="white"/>
<path d="M65.2657 0.874152H65.1507C64.9021 0.874152 64.6636 0.972923 64.4878 1.14874C64.312 1.32455 64.2132 1.563 64.2132 1.81164V11.5315C64.2123 11.5457 64.2061 11.559 64.1957 11.5687C64.1853 11.5784 64.1717 11.5838 64.1575 11.5838H49.1716C49.1577 11.5838 49.1444 11.5783 49.1346 11.5685C49.1248 11.5587 49.1193 11.5454 49.1193 11.5315V1.81164C49.1189 1.68807 49.0941 1.5658 49.0464 1.45181C48.9987 1.33782 48.929 1.23434 48.8413 1.14729C48.7536 1.06024 48.6496 0.991309 48.5352 0.944444C48.4209 0.897579 48.2985 0.873693 48.1749 0.874152H48.0599C47.8109 0.87415 47.5721 0.97281 47.3957 1.14852C47.2194 1.32424 47.1198 1.56268 47.1189 1.81164V23.6108C47.1198 23.8598 47.2194 24.0982 47.3957 24.2739C47.5721 24.4497 47.8109 24.5483 48.0599 24.5483H48.1749C48.4232 24.5474 48.6612 24.4483 48.8368 24.2727C49.0124 24.0971 49.1114 23.8592 49.1124 23.6108V13.532C49.1124 13.5181 49.1179 13.5048 49.1277 13.495C49.1375 13.4852 49.1508 13.4797 49.1646 13.4797H64.1505C64.1647 13.4797 64.1784 13.4851 64.1887 13.4948C64.1991 13.5045 64.2054 13.5178 64.2063 13.532V23.6108C64.2063 23.8595 64.305 24.0979 64.4808 24.2737C64.6567 24.4495 64.8951 24.5483 65.1437 24.5483H65.2588C65.5071 24.5474 65.745 24.4483 65.9206 24.2727C66.0963 24.0971 66.1953 23.8592 66.1962 23.6108V1.81164C66.1953 1.56448 66.0972 1.3276 65.9231 1.15219C65.749 0.976768 65.5129 0.876897 65.2657 0.874152Z" fill="white"/>
<path d="M92.2082 0.874146H77.8009C77.6762 0.875052 77.553 0.900613 77.4383 0.949357C77.3236 0.9981 77.2197 1.06906 77.1326 1.15815C77.0454 1.24724 76.9768 1.3527 76.9306 1.46844C76.8844 1.58419 76.8615 1.70793 76.8634 1.83254C76.8643 2.0809 76.9634 2.31882 77.139 2.49443C77.3146 2.67005 77.5525 2.76911 77.8009 2.77003H92.2082C92.4492 2.7554 92.6756 2.64934 92.8411 2.4735C93.0065 2.29766 93.0987 2.0653 93.0987 1.82383C93.0987 1.58237 93.0065 1.35 92.8411 1.17416C92.6756 0.998324 92.4492 0.892265 92.2082 0.877631V0.874146Z" fill="white"/>
<path d="M92.2095 11.5839H77.8022C77.5508 11.5839 77.3097 11.6838 77.1319 11.8616C76.9541 12.0393 76.8542 12.2805 76.8542 12.5319C76.8542 12.7833 76.9541 13.0244 77.1319 13.2022C77.3097 13.3799 77.5508 13.4798 77.8022 13.4798H92.2095C92.4609 13.4798 92.702 13.3799 92.8798 13.2022C93.0576 13.0244 93.1575 12.7833 93.1575 12.5319C93.1575 12.2805 93.0576 12.0393 92.8798 11.8616C92.702 11.6838 92.4609 11.5839 92.2095 11.5839Z" fill="white"/>
<path d="M114.579 12.3505C114.572 12.3415 114.568 12.3305 114.568 12.3192C114.568 12.3078 114.572 12.2968 114.579 12.2878L121.971 2.37273C122.075 2.23326 122.138 2.06752 122.154 1.89409C122.169 1.72066 122.136 1.5464 122.057 1.39082C121.979 1.23524 121.859 1.1045 121.711 1.01324C121.563 0.921987 121.392 0.873823 121.218 0.874147C121.072 0.87521 120.928 0.909688 120.798 0.974935C120.667 1.04018 120.554 1.13446 120.465 1.25054L113.425 10.7091C113.421 10.7158 113.414 10.7212 113.407 10.7248C113.4 10.7285 113.392 10.7303 113.383 10.73C113.375 10.7303 113.367 10.7285 113.36 10.7248C113.353 10.7212 113.346 10.7158 113.342 10.7091L106.27 1.25054C106.183 1.13367 106.069 1.03882 105.938 0.973488C105.808 0.908159 105.664 0.874147 105.518 0.874147H105.451C105.278 0.87446 105.107 0.922939 104.959 1.01421C104.811 1.10547 104.691 1.23596 104.613 1.39118C104.535 1.5464 104.501 1.72029 104.515 1.89356C104.53 2.06682 104.592 2.23268 104.695 2.37273L112.087 12.2878C112.094 12.2966 112.098 12.3077 112.098 12.3192C112.098 12.3306 112.094 12.3417 112.087 12.3505L104.071 23.0462C103.968 23.1858 103.905 23.3514 103.889 23.5246C103.874 23.6978 103.907 23.8718 103.985 24.0274C104.062 24.183 104.182 24.314 104.329 24.406C104.477 24.4979 104.647 24.5472 104.821 24.5483H104.852C104.998 24.5475 105.142 24.5132 105.272 24.4479C105.403 24.3826 105.517 24.2882 105.605 24.1719L113.293 13.9293C113.298 13.922 113.305 13.9163 113.313 13.9126C113.321 13.9089 113.329 13.9074 113.338 13.9084C113.346 13.9081 113.354 13.9098 113.362 13.9135C113.369 13.9171 113.375 13.9226 113.38 13.9293L121.047 24.1719C121.135 24.2881 121.248 24.3825 121.378 24.4478C121.508 24.5131 121.651 24.5475 121.796 24.5483H121.859C122.034 24.5485 122.205 24.5 122.353 24.4083C122.501 24.3166 122.621 24.1854 122.699 24.0293C122.777 23.8732 122.81 23.6986 122.794 23.5249C122.778 23.3512 122.714 23.1855 122.609 23.0462L114.579 12.3505Z" fill="white"/>
<path d="M155.874 23.2135L145.767 1.41782C145.693 1.25844 145.576 1.12302 145.429 1.02693C145.281 0.930838 145.11 0.87791 144.934 0.874146L144.492 0.874146C144.313 0.874644 144.138 0.926042 143.988 1.02232C143.837 1.11861 143.717 1.25579 143.642 1.41782L138.951 11.5002C138.886 11.6433 138.857 11.8003 138.868 11.9571C138.88 12.1139 138.93 12.2654 139.014 12.398C139.098 12.5306 139.215 12.6399 139.352 12.7162C139.49 12.7925 139.644 12.8333 139.801 12.8349H139.912C140.093 12.8345 140.269 12.7824 140.42 12.6848C140.571 12.5872 140.692 12.4482 140.766 12.2843L144.68 3.74934C144.683 3.73923 144.69 3.73056 144.699 3.72482C144.708 3.71909 144.718 3.71667 144.729 3.71797C144.739 3.71667 144.75 3.71909 144.759 3.72482C144.768 3.73056 144.774 3.73923 144.778 3.74934L150.385 15.968C150.39 15.9759 150.393 15.9849 150.393 15.9942C150.393 16.0034 150.39 16.0125 150.385 16.0203C150.381 16.0282 150.374 16.0347 150.366 16.039C150.358 16.0433 150.349 16.0453 150.34 16.0447H136.867L133.552 23.2135C133.486 23.3568 133.457 23.5145 133.468 23.6719C133.479 23.8293 133.529 23.9815 133.614 24.1144C133.699 24.2473 133.816 24.3567 133.955 24.4326C134.093 24.5084 134.248 24.5482 134.406 24.5483H134.514C134.693 24.5471 134.868 24.495 135.019 24.3981C135.169 24.3012 135.289 24.1636 135.364 24.0012L138.152 17.9057C138.156 17.896 138.163 17.8877 138.172 17.882C138.181 17.8764 138.191 17.8737 138.201 17.8744H151.204C151.215 17.8737 151.225 17.8764 151.234 17.882C151.242 17.8877 151.249 17.896 151.253 17.9057L154.041 24.0012C154.117 24.1641 154.237 24.3021 154.388 24.3991C154.539 24.496 154.715 24.5477 154.895 24.5483H155.006C155.164 24.5476 155.319 24.5074 155.457 24.4313C155.594 24.3552 155.711 24.2458 155.796 24.1129C155.88 23.9801 155.93 23.8281 155.941 23.671C155.952 23.5139 155.923 23.3566 155.857 23.2135H155.874Z" fill="white"/>
<path d="M54.4029 38.9258H55.2549V42.1298C54.8629 42.4738 54.3989 42.7378 53.8629 42.9218C53.3269 43.1058 52.7629 43.1978 52.1709 43.1978C51.3309 43.1978 50.5749 43.0138 49.9029 42.6458C49.2309 42.2778 48.7029 41.7698 48.3189 41.1218C47.9349 40.4658 47.7429 39.7338 47.7429 38.9258C47.7429 38.1178 47.9349 37.3898 48.3189 36.7418C48.7029 36.0858 49.2309 35.5738 49.9029 35.2058C50.5749 34.8378 51.3349 34.6538 52.1829 34.6538C52.8229 34.6538 53.4109 34.7578 53.9469 34.9658C54.4829 35.1658 54.9349 35.4658 55.3029 35.8658L54.7509 36.4298C54.0869 35.7738 53.2429 35.4458 52.2189 35.4458C51.5389 35.4458 50.9229 35.5978 50.3709 35.9018C49.8269 36.1978 49.3989 36.6138 49.0869 37.1498C48.7749 37.6778 48.6189 38.2698 48.6189 38.9258C48.6189 39.5818 48.7749 40.1738 49.0869 40.7018C49.3989 41.2298 49.8269 41.6458 50.3709 41.9498C50.9149 42.2538 51.5269 42.4058 52.2069 42.4058C53.0709 42.4058 53.8029 42.1898 54.4029 41.7578V38.9258ZM65.3041 43.1258L63.3841 40.4258C63.1681 40.4498 62.9441 40.4618 62.7121 40.4618H60.4561V43.1258H59.5681V34.7258H62.7121C63.7841 34.7258 64.6241 34.9818 65.2321 35.4938C65.8401 36.0058 66.1441 36.7098 66.1441 37.6058C66.1441 38.2618 65.9761 38.8178 65.6401 39.2738C65.3121 39.7218 64.8401 40.0458 64.2241 40.2458L66.2761 43.1258H65.3041ZM62.6881 39.7058C63.5201 39.7058 64.1561 39.5218 64.5961 39.1538C65.0361 38.7858 65.2561 38.2698 65.2561 37.6058C65.2561 36.9258 65.0361 36.4058 64.5961 36.0458C64.1561 35.6778 63.5201 35.4938 62.6881 35.4938H60.4561V39.7058H62.6881ZM73.712 43.1978C72.88 43.1978 72.124 43.0138 71.444 42.6458C70.772 42.2698 70.244 41.7578 69.86 41.1098C69.484 40.4618 69.296 39.7338 69.296 38.9258C69.296 38.1178 69.484 37.3898 69.86 36.7418C70.244 36.0938 70.772 35.5858 71.444 35.2178C72.124 34.8418 72.88 34.6538 73.712 34.6538C74.544 34.6538 75.292 34.8378 75.956 35.2058C76.628 35.5738 77.156 36.0858 77.54 36.7418C77.924 37.3898 78.116 38.1178 78.116 38.9258C78.116 39.7338 77.924 40.4658 77.54 41.1218C77.156 41.7698 76.628 42.2778 75.956 42.6458C75.292 43.0138 74.544 43.1978 73.712 43.1978ZM73.712 42.4058C74.376 42.4058 74.976 42.2578 75.512 41.9618C76.048 41.6578 76.468 41.2418 76.772 40.7138C77.076 40.1778 77.228 39.5818 77.228 38.9258C77.228 38.2698 77.076 37.6778 76.772 37.1498C76.468 36.6138 76.048 36.1978 75.512 35.9018C74.976 35.5978 74.376 35.4458 73.712 35.4458C73.048 35.4458 72.444 35.5978 71.9 35.9018C71.364 36.1978 70.94 36.6138 70.628 37.1498C70.324 37.6778 70.172 38.2698 70.172 38.9258C70.172 39.5818 70.324 40.1778 70.628 40.7138C70.94 41.2418 71.364 41.6578 71.9 41.9618C72.444 42.2578 73.048 42.4058 73.712 42.4058ZM85.2904 43.1978C84.2024 43.1978 83.3544 42.8858 82.7464 42.2618C82.1384 41.6378 81.8344 40.7298 81.8344 39.5378V34.7258H82.7224V39.5018C82.7224 40.4778 82.9424 41.2058 83.3824 41.6858C83.8224 42.1658 84.4584 42.4058 85.2904 42.4058C86.1304 42.4058 86.7704 42.1658 87.2104 41.6858C87.6504 41.2058 87.8704 40.4778 87.8704 39.5018V34.7258H88.7344V39.5378C88.7344 40.7298 88.4304 41.6378 87.8224 42.2618C87.2224 42.8858 86.3784 43.1978 85.2904 43.1978ZM96.3543 34.7258C97.4263 34.7258 98.2663 34.9818 98.8743 35.4938C99.4823 36.0058 99.7863 36.7098 99.7863 37.6058C99.7863 38.5018 99.4823 39.2058 98.8743 39.7178C98.2663 40.2218 97.4263 40.4738 96.3543 40.4738H94.0983V43.1258H93.2103V34.7258H96.3543ZM96.3303 39.6938C97.1623 39.6938 97.7983 39.5138 98.2383 39.1538C98.6783 38.7858 98.8983 38.2698 98.8983 37.6058C98.8983 36.9258 98.6783 36.4058 98.2383 36.0458C97.7983 35.6778 97.1623 35.4938 96.3303 35.4938H94.0983V39.6938H96.3303Z" fill="white"/>
</svg>
